<?xml version="1.0" encoding="UTF-8"?>
<svg width="32px" height="32px" viewBox="0 0 32 32" version="1.1" xmlns="http://www.w3.org/2000/svg" xmlns:xlink="http://www.w3.org/1999/xlink">
    <title>Artboard</title>
    <g id="Artboard" stroke="none" stroke-width="1" fill="none" fill-rule="evenodd">
        <g id="Group" transform="translate(2.471287, 2.598020)" fill="#000000" fill-rule="nonzero" stroke="#000000" stroke-width="0.528052805">
            <path d="M13.6554316,0 C6.37253475,0 0,5.85666887 0,13.6554455 C0,16.8720616 1.12277993,19.8307415 2.98902225,22.1673399 L0,25.171538 L2.13935095,27.3108911 L5.1283732,24.3218658 C7.54989378,26.255692 10.5564904,27.3096069 13.6554316,27.3108911 C17.145153,27.3108911 20.6500471,25.975692 23.3052699,23.3052937 C25.8739917,20.7516143 27.3160572,17.2775439 27.3108772,13.6554455 L27.3108772,0 L13.6554316,0 Z M19.4665764,14.0499362 L11.6374623,21.0749043 C11.394699,21.302495 11.0153815,21.2873223 10.787791,21.0597316 C10.5734262,20.8487704 10.5475219,20.5120148 10.7271002,20.2707503 L14.4292394,15.2182354 L8.28429517,14.6113267 C7.97757747,14.5825409 7.7165481,14.3758971 7.61814575,14.0839698 C7.51974341,13.7920425 7.60241096,13.4695457 7.82911412,13.2609549 L15.6582282,6.2359868 C15.9009915,6.00839604 16.280309,6.02356876 16.5078995,6.25115952 C16.7203174,6.46357756 16.7506628,6.79737734 16.5685903,7.04014081 L12.8664511,12.0926557 L19.0113953,12.6995644 C19.6941669,12.7602552 19.9672755,13.5947547 19.4665764,14.0499362 L19.4665764,14.0499362 Z" id="Shape"></path>
        </g>
    </g>
</svg>